<svg width="1024" height="768" viewBox="0 0 1024 768" fill="none" xmlns="http://www.w3.org/2000/svg">
<g filter="url(#filter0_dddddd_3_6)">
<path d="M474.391 312C475.078 307.344 475.578 302.422 475.891 297.234C476.234 292.016 476.406 286.453 476.406 280.547C476.406 272.578 476.25 265.859 475.938 260.391C475.625 254.922 475.25 250.703 474.812 247.734C471 247.984 467.422 248.547 464.078 249.422C460.734 250.297 457.594 251.484 454.656 252.984C455.281 251.797 455.906 250.219 456.531 248.25C457.125 246.25 457.547 243.891 457.797 241.172L459.016 241.547C462.703 242.703 470.984 243.281 483.859 243.281C492.422 243.281 499.922 242.578 506.359 241.172C505.453 243.297 504.75 245.312 504.25 247.219C503.781 249.094 503.469 251.016 503.312 252.984L502.328 252.328C498.516 249.797 492.984 248.281 485.734 247.781C485.203 251.812 484.797 256.031 484.516 260.438C484.234 264.812 484.094 269.688 484.094 275.062C484.125 282.594 484.266 288.922 484.516 294.047C484.766 299.172 485.203 303.156 485.828 306L486.203 307.688C484.766 307.844 483.438 308.078 482.219 308.391C481 308.703 479.891 309.078 478.891 309.516C477.922 309.953 477.062 310.391 476.312 310.828C475.562 311.234 474.922 311.625 474.391 312ZM513.391 312C514.078 307.188 514.594 302.688 514.938 298.5C515.281 294.281 515.453 290.328 515.453 286.641C515.453 282.391 515.266 278.25 514.891 274.219C514.547 270.188 514.141 266.281 513.672 262.5L513.391 260.906C515.297 260.688 517.188 260.25 519.062 259.594C520.969 258.906 523.016 257.953 525.203 256.734C524.484 261.391 523.938 265.625 523.562 269.438C523.219 273.219 523.047 276.641 523.047 279.703L523.094 281.812C523.438 288.875 523.719 294.359 523.938 298.266C524.188 302.172 524.391 304.562 524.547 305.438L526.75 306.516C529.188 307.391 531.547 307.828 533.828 307.828C539.172 307.828 543.703 305.594 547.422 301.125C548.922 299 550.188 296.984 551.219 295.078C552.25 293.172 553.078 291.281 553.703 289.406C554.359 287.5 554.812 285.578 555.062 283.641C555.344 281.672 555.484 279.562 555.484 277.312C555.484 274.875 555.297 272.656 554.922 270.656C554.578 268.625 554.031 266.75 553.281 265.031C552.531 263.312 551.578 261.719 550.422 260.25C549.297 258.75 547.938 257.312 546.344 255.938C544.406 254.25 542.047 252.875 539.266 251.812C536.516 250.75 533.375 250.219 529.844 250.219C528.219 250.219 526.484 250.422 524.641 250.828C522.828 251.203 520.984 251.766 519.109 252.516C517.234 253.234 515.375 254.109 513.531 255.141C511.688 256.172 509.938 257.328 508.281 258.609L511.422 246.328L519.016 243.328C521.359 242.641 523.531 242.109 525.531 241.734C527.531 241.328 529.359 241.125 531.016 241.125C532.359 241.125 533.828 241.25 535.422 241.5C537.016 241.719 538.719 242.141 540.531 242.766C542.375 243.391 544.297 244.266 546.297 245.391C548.297 246.516 550.375 247.969 552.531 249.75C553.969 250.938 555.328 252.438 556.609 254.25C557.922 256.062 559.062 258.141 560.031 260.484C561.031 262.828 561.812 265.422 562.375 268.266C562.969 271.078 563.266 274.109 563.266 277.359C563.266 280.766 562.906 283.938 562.188 286.875C561.5 289.781 560.594 292.438 559.469 294.844C558.344 297.25 557.047 299.375 555.578 301.219C554.141 303.062 552.672 304.594 551.172 305.812C548.672 307.844 546.109 309.375 543.484 310.406C540.891 311.438 538.172 311.969 535.328 312L525.203 307.688C523.609 307.875 522.203 308.141 520.984 308.484C519.797 308.797 518.734 309.156 517.797 309.562C516.859 309.969 516.031 310.391 515.312 310.828C514.625 311.234 513.984 311.625 513.391 312ZM628.562 307.688C627.281 307.844 626.047 308.078 624.859 308.391C623.672 308.703 622.562 309.062 621.531 309.469C620.5 309.875 619.578 310.297 618.766 310.734C617.953 311.172 617.281 311.594 616.75 312C616.25 310.094 615.438 307.25 614.312 303.469C613.188 299.688 611.734 294.938 609.953 289.219C608.266 289.062 606.578 288.938 604.891 288.844C603.234 288.75 601.531 288.703 599.781 288.703C599.281 288.703 598.828 288.719 598.422 288.75C598.016 288.75 597.656 288.75 597.344 288.75C591.938 288.75 587.531 289.031 584.125 289.594L583.656 289.688C581.906 294.625 580.578 298.547 579.672 301.453C578.766 304.359 578.312 306.297 578.312 307.266V307.875C573.906 308.75 570.719 310.125 568.75 312C570.906 307.656 573.188 302.734 575.594 297.234C578 291.703 580.562 285.5 583.281 278.625C588.188 266.125 591.234 255.625 592.422 247.125L592.609 245.25C596.422 244.844 600.359 243.484 604.422 241.172C605.391 250.453 608.562 262.297 613.938 276.703C619.719 292.266 624.594 302.594 628.562 307.688ZM608.5 284.531L606.484 278.109C604.359 271.328 602.547 266.031 601.047 262.219C599.578 258.375 598.438 255.969 597.625 255C595.969 257.438 592.625 265.406 587.594 278.906L585.531 284.438C587.125 284.594 588.797 284.719 590.547 284.812C592.328 284.906 594.203 284.953 596.172 284.953H597.156C601.812 284.953 605.594 284.812 608.5 284.531Z" fill="#FFF7DB"/>
</g>
<g filter="url(#filter1_dddddd_3_6)">
<path d="M342 248.188C343.75 248.021 345.438 247.708 347.062 247.25C348.729 246.792 350.25 246.292 351.625 245.75C353.042 245.208 354.271 244.667 355.312 244.125C356.354 243.542 357.167 243.021 357.75 242.562C359.042 247.979 363.604 263 371.438 287.625C377.146 305.625 381.083 315.896 383.25 318.438C385.208 315.521 388.833 307.125 394.125 293.25L392.75 289.5C385 268.792 378.5 255.021 373.25 248.188C374.833 248.021 376.438 247.729 378.062 247.312C379.688 246.854 381.208 246.354 382.625 245.812C384.042 245.271 385.312 244.708 386.438 244.125C387.562 243.542 388.417 243.021 389 242.562C390.292 248.188 393.854 260.062 399.688 278.188C402.771 269.812 405.083 263.188 406.625 258.312C408.208 253.438 409 250.25 409 248.75V247.938C414.958 246.771 419.208 244.979 421.75 242.562C415.75 254.146 409.312 268.896 402.438 286.812C408.271 305.354 412.292 315.896 414.5 318.438C416.833 315.062 421.292 304.438 427.875 286.562C431.958 275.396 435.042 266.688 437.125 260.438C439.208 254.146 440.25 250.25 440.25 248.75V247.938C446.208 246.646 450.458 244.854 453 242.562C450.333 247.771 447.375 254.042 444.125 261.375C440.917 268.708 437.417 277.229 433.625 286.938C427.042 303.604 422.979 317.604 421.438 328.938L421.188 331.438C418.646 331.729 416.104 332.333 413.562 333.25C411.062 334.125 408.354 335.375 405.438 337C404.354 327.167 401.542 315.375 397 301.625C395.25 306.833 393.812 311.708 392.688 316.25C391.562 320.75 390.729 324.979 390.188 328.938L389.938 331.438C387.396 331.729 384.854 332.333 382.312 333.25C379.812 334.125 377.104 335.375 374.188 337C372.812 324.458 368.583 308.625 361.5 289.5C353.75 268.792 347.25 255.021 342 248.188Z" fill="#FFF7DB"/>
</g>
<g filter="url(#filter2_dddddd_3_6)">
<path d="M672.625 242.312C673.667 242.604 675.021 243.104 676.688 243.812C678.396 244.521 680.271 245.417 682.312 246.5C684.396 247.583 686.583 248.958 688.875 250.625C691.167 252.25 693.479 254.188 695.812 256.438C696.479 257.104 697.104 257.792 697.688 258.5C698.312 259.167 698.896 259.854 699.438 260.562L687 266.688C685.083 264.271 683.146 262.229 681.188 260.562C679.229 258.854 677.125 257.438 674.875 256.312C672.625 255.188 670.25 254.229 667.75 253.438C665.25 252.604 662.5 251.917 659.5 251.375C655 254.542 652.75 259.396 652.75 265.938C652.75 270.479 655.208 273.625 660.125 275.375C683.792 283.833 697.688 290.104 701.812 294.188C703.271 295.646 704.417 297.521 705.25 299.812C706.083 302.104 706.5 304.75 706.5 307.75C706.5 310 706.021 312.167 705.062 314.25C704.146 316.333 702.625 318.5 700.5 320.75C696.667 324.708 693.938 327.083 692.312 327.875L675.625 337C671.292 336.5 664.875 333.958 656.375 329.375C654.917 328.583 653.167 327.396 651.125 325.812C649.083 324.229 646.75 322.188 644.125 319.688C643.417 319.062 642.771 318.396 642.188 317.688C641.604 316.979 641.042 316.271 640.5 315.562L652.938 309.438C654.312 311.688 658.792 315 666.375 319.375C672.875 323.083 681.271 325.875 691.562 327.75C696.104 324.542 698.375 319.667 698.375 313.125C698.375 307.625 694.646 303.271 687.188 300.062C677.896 296.146 670.812 293.146 665.938 291.062C661.062 288.979 658.333 287.833 657.75 287.625C649.25 284.333 645 278.792 645 271C645 266.542 646.875 262.333 650.625 258.375C654.458 254.417 657.167 252.042 658.75 251.25L672.625 242.312Z" fill="#FFF7DB"/>
</g>
<g filter="url(#filter3_dddddd_3_6)">
<path d="M458.51 330.735L460.85 324.225C460.99 323.835 461.09 323.525 461.15 323.295C461.21 323.065 461.24 322.865 461.24 322.695C461.24 322.435 461.155 322.26 460.985 322.17C460.825 322.07 460.535 322.02 460.115 322.02V321.45H463.76V322.02C463.3 322.02 462.95 322.115 462.71 322.305C462.48 322.495 462.285 322.805 462.125 323.235L458.36 333.15H457.835L454.955 324.615L451.76 333.15H451.235L448.115 324.54C447.935 324.06 447.77 323.66 447.62 323.34C447.48 323.01 447.325 322.75 447.155 322.56C446.995 322.37 446.81 322.235 446.6 322.155C446.39 322.075 446.135 322.035 445.835 322.035V321.45H450.725V322.035C450.215 322.035 449.855 322.08 449.645 322.17C449.445 322.26 449.345 322.435 449.345 322.695C449.345 322.825 449.365 322.975 449.405 323.145C449.445 323.315 449.505 323.515 449.585 323.745L451.865 330.69L453.71 325.5C453.85 325.11 453.985 324.75 454.115 324.42C454.255 324.08 454.365 323.775 454.445 323.505C454.305 323.215 454.175 322.975 454.055 322.785C453.945 322.595 453.83 322.445 453.71 322.335C453.6 322.225 453.48 322.15 453.35 322.11C453.23 322.06 453.1 322.035 452.96 322.035V321.45H457.55V322.035C457.26 322.035 457.025 322.045 456.845 322.065C456.665 322.085 456.525 322.12 456.425 322.17C456.335 322.21 456.27 322.27 456.23 322.35C456.2 322.43 456.185 322.525 456.185 322.635C456.185 322.785 456.21 322.97 456.26 323.19C456.32 323.4 456.4 323.67 456.5 324L458.51 330.735ZM467.035 330.615C467.035 331.025 467.045 331.35 467.065 331.59C467.085 331.83 467.135 332.015 467.215 332.145C467.305 332.265 467.43 332.345 467.59 332.385C467.75 332.425 467.975 332.455 468.265 332.475V333H464.275V332.475C464.565 332.455 464.795 332.425 464.965 332.385C465.135 332.345 465.265 332.265 465.355 332.145C465.445 332.025 465.5 331.855 465.52 331.635C465.55 331.405 465.565 331.1 465.565 330.72V324.435C465.565 323.845 465.555 323.375 465.535 323.025C465.525 322.675 465.5 322.41 465.46 322.23C465.44 322.11 465.405 322.015 465.355 321.945C465.315 321.865 465.25 321.805 465.16 321.765C465.07 321.715 464.95 321.68 464.8 321.66C464.65 321.64 464.465 321.63 464.245 321.63V321.12L467.005 320.55V326.265H467.065C467.215 326.065 467.4 325.885 467.62 325.725C467.85 325.555 468.095 325.41 468.355 325.29C468.615 325.17 468.885 325.075 469.165 325.005C469.455 324.935 469.735 324.9 470.005 324.9C470.465 324.9 470.885 324.98 471.265 325.14C471.655 325.3 471.955 325.515 472.165 325.785C472.335 326.015 472.46 326.32 472.54 326.7C472.62 327.07 472.66 327.575 472.66 328.215V330.615C472.66 331.025 472.67 331.35 472.69 331.59C472.71 331.82 472.76 332 472.84 332.13C472.93 332.26 473.055 332.345 473.215 332.385C473.375 332.425 473.6 332.455 473.89 332.475V333H469.915V332.475C470.195 332.465 470.42 332.44 470.59 332.4C470.76 332.35 470.885 332.265 470.965 332.145C471.055 332.025 471.11 331.855 471.13 331.635C471.16 331.405 471.175 331.1 471.175 330.72V328.83C471.175 327.71 471.045 326.915 470.785 326.445C470.525 325.965 470.09 325.725 469.48 325.725C469.01 325.725 468.58 325.845 468.19 326.085C467.81 326.325 467.51 326.655 467.29 327.075C467.24 327.185 467.195 327.29 467.155 327.39C467.125 327.48 467.1 327.585 467.08 327.705C467.06 327.825 467.045 327.965 467.035 328.125C467.035 328.275 467.035 328.465 467.035 328.695V330.615ZM479.477 328.56C478.907 328.78 478.422 328.995 478.022 329.205C477.632 329.415 477.317 329.625 477.077 329.835C476.837 330.045 476.662 330.255 476.552 330.465C476.452 330.675 476.402 330.89 476.402 331.11C476.402 331.44 476.512 331.71 476.732 331.92C476.952 332.13 477.242 332.235 477.602 332.235C477.862 332.235 478.102 332.17 478.322 332.04C478.552 331.91 478.752 331.735 478.922 331.515C479.092 331.285 479.227 331.02 479.327 330.72C479.427 330.41 479.477 330.085 479.477 329.745V328.56ZM479.477 327.915V327.3C479.477 326.08 478.957 325.47 477.917 325.47C477.747 325.47 477.602 325.485 477.482 325.515C477.362 325.545 477.262 325.595 477.182 325.665C477.102 325.735 477.027 325.835 476.957 325.965C476.897 326.095 476.837 326.255 476.777 326.445C476.667 326.735 476.557 326.93 476.447 327.03C476.347 327.12 476.197 327.165 475.997 327.165C475.497 327.165 475.247 326.915 475.247 326.415C475.247 325.935 475.502 325.565 476.012 325.305C476.522 325.035 477.247 324.9 478.187 324.9C479.187 324.9 479.897 325.08 480.317 325.44C480.737 325.79 480.947 326.39 480.947 327.24V330.6C480.947 331.74 481.172 332.31 481.622 332.31C481.762 332.31 481.897 332.295 482.027 332.265C482.157 332.225 482.267 332.13 482.357 331.98L482.567 332.34C482.447 332.57 482.227 332.765 481.907 332.925C481.587 333.075 481.252 333.15 480.902 333.15C480.462 333.15 480.132 333.01 479.912 332.73C479.702 332.45 479.597 332.055 479.597 331.545H479.522C479.262 332.035 478.902 332.425 478.442 332.715C477.982 332.995 477.472 333.135 476.912 333.135C476.282 333.135 475.787 332.975 475.427 332.655C475.067 332.335 474.887 331.905 474.887 331.365C474.887 331.125 474.927 330.895 475.007 330.675C475.097 330.455 475.237 330.245 475.427 330.045C475.617 329.845 475.867 329.65 476.177 329.46C476.487 329.26 476.867 329.06 477.317 328.86L479.477 327.915ZM483.148 325.995V325.44C483.678 325.13 484.093 324.82 484.393 324.51C484.693 324.2 484.923 323.83 485.083 323.4H485.518V325.29H487.528V325.995H485.518V330.555C485.518 330.905 485.533 331.2 485.563 331.44C485.603 331.68 485.663 331.875 485.743 332.025C485.823 332.165 485.928 332.265 486.058 332.325C486.188 332.385 486.353 332.415 486.553 332.415C486.803 332.415 487.013 332.365 487.183 332.265C487.363 332.155 487.538 331.975 487.708 331.725L488.083 332.01C487.943 332.38 487.698 332.665 487.348 332.865C487.008 333.055 486.583 333.15 486.073 333.15C485.413 333.15 484.908 332.995 484.558 332.685C484.218 332.365 484.048 331.91 484.048 331.32V325.995H483.148ZM503.845 324.315H503.23C503.2 323.885 503.13 323.525 503.02 323.235C502.91 322.945 502.75 322.72 502.54 322.56C502.34 322.39 502.085 322.27 501.775 322.2C501.465 322.13 501.095 322.095 500.665 322.095C500.295 322.095 499.995 322.105 499.765 322.125C499.545 322.135 499.375 322.16 499.255 322.2C499.135 322.24 499.055 322.29 499.015 322.35C498.985 322.4 498.97 322.47 498.97 322.56V330.585C498.97 330.905 498.99 331.18 499.03 331.41C499.08 331.64 499.17 331.83 499.3 331.98C499.44 332.12 499.635 332.23 499.885 332.31C500.145 332.38 500.485 332.42 500.905 332.43V333H495.235V332.43C495.655 332.42 495.995 332.38 496.255 332.31C496.515 332.23 496.71 332.12 496.84 331.98C496.98 331.83 497.07 331.64 497.11 331.41C497.16 331.18 497.185 330.905 497.185 330.585V322.56C497.185 322.47 497.165 322.4 497.125 322.35C497.095 322.29 497.025 322.24 496.915 322.2C496.815 322.16 496.67 322.135 496.48 322.125C496.29 322.105 496.035 322.095 495.715 322.095C495.325 322.095 494.96 322.11 494.62 322.14C494.29 322.17 494 322.26 493.75 322.41C493.51 322.55 493.315 322.77 493.165 323.07C493.015 323.37 492.935 323.785 492.925 324.315H492.37V321.45H503.695L503.845 324.315ZM507.301 324.9C507.871 324.9 508.411 325.005 508.921 325.215C509.431 325.415 509.876 325.695 510.256 326.055C510.646 326.415 510.951 326.845 511.171 327.345C511.401 327.835 511.516 328.375 511.516 328.965C511.516 329.575 511.401 330.135 511.171 330.645C510.951 331.155 510.646 331.595 510.256 331.965C509.876 332.335 509.431 332.625 508.921 332.835C508.411 333.045 507.871 333.15 507.301 333.15C506.741 333.15 506.206 333.05 505.696 332.85C505.196 332.64 504.756 332.35 504.376 331.98C503.996 331.61 503.696 331.17 503.476 330.66C503.256 330.14 503.146 329.575 503.146 328.965C503.146 328.375 503.256 327.83 503.476 327.33C503.696 326.83 503.996 326.4 504.376 326.04C504.756 325.68 505.196 325.4 505.696 325.2C506.206 325 506.741 324.9 507.301 324.9ZM507.301 325.62C506.931 325.62 506.591 325.7 506.281 325.86C505.981 326.02 505.721 326.25 505.501 326.55C505.291 326.84 505.126 327.195 505.006 327.615C504.896 328.025 504.841 328.48 504.841 328.98C504.841 329.5 504.896 329.97 505.006 330.39C505.126 330.81 505.291 331.17 505.501 331.47C505.721 331.76 505.981 331.985 506.281 332.145C506.581 332.305 506.921 332.385 507.301 332.385C507.681 332.385 508.026 332.305 508.336 332.145C508.646 331.985 508.911 331.755 509.131 331.455C509.351 331.155 509.521 330.795 509.641 330.375C509.761 329.955 509.821 329.49 509.821 328.98C509.821 328.48 509.761 328.025 509.641 327.615C509.521 327.205 509.351 326.855 509.131 326.565C508.911 326.265 508.646 326.035 508.336 325.875C508.026 325.705 507.681 325.62 507.301 325.62ZM517.117 333V332.43C517.497 332.42 517.802 332.395 518.032 332.355C518.272 332.305 518.457 332.22 518.587 332.1C518.717 331.97 518.802 331.8 518.842 331.59C518.892 331.37 518.917 331.08 518.917 330.72V323.73C518.917 323.38 518.897 323.1 518.857 322.89C518.827 322.67 518.757 322.5 518.647 322.38C518.547 322.25 518.397 322.165 518.197 322.125C517.997 322.075 517.737 322.04 517.417 322.02V321.45H522.682C523.582 321.45 524.412 321.6 525.172 321.9C525.942 322.2 526.602 322.615 527.152 323.145C527.712 323.675 528.147 324.305 528.457 325.035C528.767 325.765 528.922 326.56 528.922 327.42C528.922 328.24 528.777 328.995 528.487 329.685C528.197 330.365 527.787 330.95 527.257 331.44C526.737 331.93 526.112 332.315 525.382 332.595C524.652 332.865 523.852 333 522.982 333H517.117ZM520.747 322.185C520.577 322.185 520.492 322.27 520.492 322.44V330.555C520.492 331.695 521.237 332.265 522.727 332.265C524.097 332.265 525.147 331.86 525.877 331.05C526.607 330.23 526.972 329.03 526.972 327.45C526.972 326.62 526.872 325.88 526.672 325.23C526.472 324.58 526.182 324.03 525.802 323.58C525.432 323.13 524.982 322.785 524.452 322.545C523.922 322.305 523.322 322.185 522.652 322.185H520.747ZM534.679 324.9C535.249 324.9 535.789 325.005 536.299 325.215C536.809 325.415 537.254 325.695 537.634 326.055C538.024 326.415 538.329 326.845 538.549 327.345C538.779 327.835 538.894 328.375 538.894 328.965C538.894 329.575 538.779 330.135 538.549 330.645C538.329 331.155 538.024 331.595 537.634 331.965C537.254 332.335 536.809 332.625 536.299 332.835C535.789 333.045 535.249 333.15 534.679 333.15C534.119 333.15 533.584 333.05 533.074 332.85C532.574 332.64 532.134 332.35 531.754 331.98C531.374 331.61 531.074 331.17 530.854 330.66C530.634 330.14 530.524 329.575 530.524 328.965C530.524 328.375 530.634 327.83 530.854 327.33C531.074 326.83 531.374 326.4 531.754 326.04C532.134 325.68 532.574 325.4 533.074 325.2C533.584 325 534.119 324.9 534.679 324.9ZM534.679 325.62C534.309 325.62 533.969 325.7 533.659 325.86C533.359 326.02 533.099 326.25 532.879 326.55C532.669 326.84 532.504 327.195 532.384 327.615C532.274 328.025 532.219 328.48 532.219 328.98C532.219 329.5 532.274 329.97 532.384 330.39C532.504 330.81 532.669 331.17 532.879 331.47C533.099 331.76 533.359 331.985 533.659 332.145C533.959 332.305 534.299 332.385 534.679 332.385C535.059 332.385 535.404 332.305 535.714 332.145C536.024 331.985 536.289 331.755 536.509 331.455C536.729 331.155 536.899 330.795 537.019 330.375C537.139 329.955 537.199 329.49 537.199 328.98C537.199 328.48 537.139 328.025 537.019 327.615C536.899 327.205 536.729 326.855 536.509 326.565C536.289 326.265 536.024 326.035 535.714 325.875C535.404 325.705 535.059 325.62 534.679 325.62ZM550.644 328.815H546.639C546.469 329.225 546.324 329.59 546.204 329.91C546.084 330.22 545.984 330.49 545.904 330.72C545.834 330.95 545.784 331.145 545.754 331.305C545.724 331.465 545.709 331.595 545.709 331.695C545.709 331.975 545.799 332.17 545.979 332.28C546.159 332.38 546.459 332.43 546.879 332.43V333H543.234V332.43C543.464 332.4 543.659 332.36 543.819 332.31C543.989 332.26 544.134 332.19 544.254 332.1C544.384 332.01 544.494 331.895 544.584 331.755C544.684 331.605 544.779 331.425 544.869 331.215L548.769 321.45H549.414L552.819 329.91C553.049 330.47 553.249 330.92 553.419 331.26C553.589 331.59 553.754 331.84 553.914 332.01C554.074 332.18 554.244 332.29 554.424 332.34C554.614 332.39 554.839 332.415 555.099 332.415V333H550.209V332.415C550.739 332.415 551.104 332.365 551.304 332.265C551.504 332.165 551.604 332 551.604 331.77C551.604 331.67 551.599 331.58 551.589 331.5C551.579 331.41 551.559 331.315 551.529 331.215C551.509 331.115 551.474 331.005 551.424 330.885C551.384 330.755 551.329 330.605 551.259 330.435L550.644 328.815ZM546.939 328.065H550.359L548.694 323.64L546.939 328.065ZM558.346 325.995V330.585C558.346 330.955 558.366 331.265 558.406 331.515C558.456 331.755 558.536 331.945 558.646 332.085C558.766 332.225 558.926 332.325 559.126 332.385C559.326 332.445 559.586 332.475 559.906 332.475V333H555.646V332.475C555.936 332.475 556.166 332.455 556.336 332.415C556.506 332.375 556.636 332.29 556.726 332.16C556.816 332.03 556.871 331.85 556.891 331.62C556.921 331.39 556.936 331.085 556.936 330.705V325.995H555.241V325.29H556.936V324.21C556.936 323.06 557.236 322.165 557.836 321.525C558.446 320.875 559.311 320.55 560.431 320.55C561.051 320.55 561.556 320.645 561.946 320.835C562.336 321.025 562.531 321.27 562.531 321.57C562.531 321.77 562.466 321.94 562.336 322.08C562.216 322.21 562.061 322.275 561.871 322.275C561.751 322.275 561.621 322.24 561.481 322.17C561.341 322.09 561.166 321.96 560.956 321.78C560.706 321.57 560.511 321.435 560.371 321.375C560.231 321.305 560.066 321.27 559.876 321.27C559.636 321.27 559.421 321.315 559.231 321.405C559.041 321.485 558.881 321.635 558.751 321.855C558.621 322.065 558.521 322.355 558.451 322.725C558.381 323.085 558.346 323.55 558.346 324.12V325.29H560.971C561.181 325.29 561.401 325.24 561.631 325.14C561.861 325.03 562.076 324.885 562.276 324.705C562.486 324.525 562.671 324.325 562.831 324.105C562.991 323.875 563.116 323.64 563.206 323.4H563.641V325.29H565.651V325.995H563.641V330.555C563.641 330.905 563.656 331.2 563.686 331.44C563.726 331.68 563.786 331.875 563.866 332.025C563.946 332.165 564.051 332.265 564.181 332.325C564.311 332.385 564.476 332.415 564.676 332.415C564.926 332.415 565.136 332.365 565.306 332.265C565.486 332.155 565.661 331.975 565.831 331.725L566.206 332.01C566.066 332.38 565.821 332.665 565.471 332.865C565.131 333.055 564.706 333.15 564.196 333.15C563.536 333.15 563.031 332.995 562.681 332.685C562.341 332.365 562.171 331.91 562.171 331.32V325.995H558.346ZM574.167 331.605C573.317 332.635 572.262 333.15 571.002 333.15C570.412 333.15 569.877 333.055 569.397 332.865C568.917 332.665 568.502 332.39 568.152 332.04C567.812 331.68 567.547 331.255 567.357 330.765C567.167 330.265 567.072 329.715 567.072 329.115C567.072 328.505 567.172 327.94 567.372 327.42C567.572 326.9 567.852 326.455 568.212 326.085C568.582 325.715 569.017 325.425 569.517 325.215C570.027 325.005 570.582 324.9 571.182 324.9C572.152 324.9 572.902 325.165 573.432 325.695C573.962 326.215 574.227 326.965 574.227 327.945C574.227 328.085 574.197 328.17 574.137 328.2C574.087 328.23 573.962 328.245 573.762 328.245H568.827C568.807 328.325 568.792 328.425 568.782 328.545C568.772 328.655 568.767 328.78 568.767 328.92C568.767 329.44 568.827 329.915 568.947 330.345C569.077 330.765 569.257 331.125 569.487 331.425C569.727 331.725 570.007 331.96 570.327 332.13C570.657 332.29 571.022 332.37 571.422 332.37C571.842 332.37 572.232 332.28 572.592 332.1C572.952 331.91 573.322 331.605 573.702 331.185L574.167 331.605ZM571.692 327.555C571.892 327.555 572.052 327.55 572.172 327.54C572.292 327.53 572.382 327.51 572.442 327.48C572.502 327.45 572.542 327.41 572.562 327.36C572.582 327.3 572.592 327.225 572.592 327.135C572.592 326.675 572.442 326.31 572.142 326.04C571.852 325.76 571.452 325.62 570.942 325.62C569.862 325.62 569.192 326.265 568.932 327.555H571.692ZM578.266 330.615C578.266 331.025 578.276 331.35 578.296 331.59C578.316 331.83 578.366 332.015 578.446 332.145C578.536 332.265 578.661 332.345 578.821 332.385C578.981 332.425 579.206 332.455 579.496 332.475V333H575.506V332.475C575.796 332.465 576.026 332.44 576.196 332.4C576.366 332.35 576.496 332.265 576.586 332.145C576.676 332.025 576.731 331.855 576.751 331.635C576.781 331.405 576.796 331.1 576.796 330.72V328.965C576.796 328.285 576.786 327.755 576.766 327.375C576.756 326.995 576.706 326.715 576.616 326.535C576.536 326.355 576.406 326.25 576.226 326.22C576.046 326.18 575.796 326.16 575.476 326.16V325.635L578.101 325.065L578.311 326.925H578.371C578.501 326.625 578.661 326.35 578.851 326.1C579.051 325.85 579.266 325.64 579.496 325.47C579.726 325.29 579.966 325.15 580.216 325.05C580.466 324.95 580.721 324.9 580.981 324.9C581.301 324.9 581.551 324.98 581.731 325.14C581.921 325.29 582.016 325.495 582.016 325.755C582.016 325.995 581.941 326.185 581.791 326.325C581.641 326.455 581.426 326.52 581.146 326.52C580.986 326.52 580.851 326.5 580.741 326.46C580.631 326.42 580.531 326.38 580.441 326.34C580.361 326.29 580.281 326.245 580.201 326.205C580.131 326.165 580.051 326.145 579.961 326.145C579.691 326.145 579.421 326.32 579.151 326.67C578.881 327.01 578.671 327.445 578.521 327.975C578.441 328.265 578.376 328.595 578.326 328.965C578.286 329.325 578.266 329.705 578.266 330.105V330.615ZM586.865 329.475H587.42C587.49 329.925 587.62 330.33 587.81 330.69C588.01 331.05 588.255 331.355 588.545 331.605C588.845 331.855 589.185 332.05 589.565 332.19C589.955 332.32 590.375 332.385 590.825 332.385C591.565 332.385 592.15 332.21 592.58 331.86C593.01 331.51 593.225 331.035 593.225 330.435C593.225 330.185 593.18 329.955 593.09 329.745C593.01 329.535 592.87 329.335 592.67 329.145C592.47 328.945 592.2 328.75 591.86 328.56C591.53 328.37 591.11 328.165 590.6 327.945C589.98 327.675 589.46 327.415 589.04 327.165C588.62 326.915 588.285 326.655 588.035 326.385C587.785 326.115 587.605 325.83 587.495 325.53C587.395 325.22 587.345 324.87 587.345 324.48C587.345 324.02 587.425 323.595 587.585 323.205C587.755 322.815 587.99 322.48 588.29 322.2C588.59 321.91 588.945 321.69 589.355 321.54C589.765 321.38 590.215 321.3 590.705 321.3C591.145 321.3 591.555 321.37 591.935 321.51C592.315 321.65 592.7 321.875 593.09 322.185L593.48 321.51H593.825L593.99 324.495H593.435C593.195 323.675 592.845 323.065 592.385 322.665C591.935 322.265 591.39 322.065 590.75 322.065C590.14 322.065 589.655 322.215 589.295 322.515C588.935 322.815 588.755 323.22 588.755 323.73C588.755 323.97 588.795 324.19 588.875 324.39C588.955 324.58 589.085 324.765 589.265 324.945C589.445 325.115 589.68 325.29 589.97 325.47C590.26 325.64 590.62 325.82 591.05 326.01C591.79 326.34 592.405 326.65 592.895 326.94C593.385 327.22 593.775 327.505 594.065 327.795C594.355 328.075 594.56 328.375 594.68 328.695C594.8 329.005 594.86 329.355 594.86 329.745C594.86 330.245 594.76 330.705 594.56 331.125C594.36 331.545 594.08 331.905 593.72 332.205C593.36 332.505 592.93 332.74 592.43 332.91C591.93 333.07 591.38 333.15 590.78 333.15C590.21 333.15 589.695 333.07 589.235 332.91C588.785 332.75 588.325 332.48 587.855 332.1L587.435 332.835H587.09L586.865 329.475ZM599.083 330.615C599.083 331.005 599.098 331.32 599.128 331.56C599.168 331.79 599.238 331.975 599.338 332.115C599.438 332.245 599.578 332.335 599.758 332.385C599.938 332.435 600.178 332.465 600.478 332.475V333H596.173V332.475C596.473 332.465 596.718 332.435 596.908 332.385C597.098 332.325 597.243 332.235 597.343 332.115C597.453 331.985 597.523 331.81 597.553 331.59C597.593 331.36 597.613 331.07 597.613 330.72V328.8C597.613 328.22 597.603 327.745 597.583 327.375C597.573 326.995 597.548 326.735 597.508 326.595C597.458 326.365 597.343 326.21 597.163 326.13C596.983 326.04 596.643 325.995 596.143 325.995V325.47L599.083 324.9V330.615ZM597.358 321.855C597.358 321.595 597.448 321.375 597.628 321.195C597.808 321.015 598.028 320.925 598.288 320.925C598.548 320.925 598.768 321.015 598.948 321.195C599.128 321.375 599.218 321.595 599.218 321.855C599.218 322.115 599.128 322.335 598.948 322.515C598.768 322.695 598.548 322.785 598.288 322.785C598.028 322.785 597.808 322.695 597.628 322.515C597.448 322.335 597.358 322.115 597.358 321.855ZM608.035 331.74H607.975C607.615 332.25 607.23 332.615 606.82 332.835C606.42 333.045 605.945 333.15 605.395 333.15C604.825 333.15 604.3 333.05 603.82 332.85C603.35 332.64 602.94 332.355 602.59 331.995C602.25 331.625 601.98 331.185 601.78 330.675C601.59 330.165 601.495 329.61 601.495 329.01C601.495 328.42 601.59 327.875 601.78 327.375C601.98 326.865 602.25 326.43 602.59 326.07C602.94 325.7 603.355 325.415 603.835 325.215C604.315 325.005 604.835 324.9 605.395 324.9C605.875 324.9 606.3 324.98 606.67 325.14C607.05 325.3 607.415 325.555 607.765 325.905V324.375C607.765 323.805 607.755 323.33 607.735 322.95C607.725 322.57 607.705 322.31 607.675 322.17C607.625 321.95 607.485 321.795 607.255 321.705C607.025 321.615 606.65 321.57 606.13 321.57V321.12L609.205 320.55V329.205C609.205 329.895 609.21 330.465 609.22 330.915C609.23 331.355 609.26 331.67 609.31 331.86C609.34 331.98 609.375 332.08 609.415 332.16C609.465 332.24 609.53 332.305 609.61 332.355C609.7 332.395 609.815 332.425 609.955 332.445C610.105 332.465 610.295 332.475 610.525 332.475V332.985L608.035 333.15V331.74ZM607.735 328.425C607.735 327.905 607.705 327.51 607.645 327.24C607.595 326.97 607.49 326.735 607.33 326.535C607.1 326.235 606.805 326.01 606.445 325.86C606.095 325.7 605.745 325.62 605.395 325.62C604.675 325.62 604.125 325.92 603.745 326.52C603.375 327.11 603.19 327.915 603.19 328.935C603.19 329.465 603.235 329.945 603.325 330.375C603.425 330.805 603.565 331.175 603.745 331.485C603.935 331.785 604.165 332.02 604.435 332.19C604.715 332.35 605.035 332.43 605.395 332.43C605.575 332.43 605.755 332.41 605.935 332.37C606.125 332.33 606.305 332.27 606.475 332.19C606.655 332.1 606.82 332 606.97 331.89C607.12 331.77 607.245 331.635 607.345 331.485C607.485 331.265 607.585 331 607.645 330.69C607.705 330.38 607.735 329.955 607.735 329.415V328.425ZM616.132 328.56C615.562 328.78 615.077 328.995 614.677 329.205C614.287 329.415 613.972 329.625 613.732 329.835C613.492 330.045 613.317 330.255 613.207 330.465C613.107 330.675 613.057 330.89 613.057 331.11C613.057 331.44 613.167 331.71 613.387 331.92C613.607 332.13 613.897 332.235 614.257 332.235C614.517 332.235 614.757 332.17 614.977 332.04C615.207 331.91 615.407 331.735 615.577 331.515C615.747 331.285 615.882 331.02 615.982 330.72C616.082 330.41 616.132 330.085 616.132 329.745V328.56ZM616.132 327.915V327.3C616.132 326.08 615.612 325.47 614.572 325.47C614.402 325.47 614.257 325.485 614.137 325.515C614.017 325.545 613.917 325.595 613.837 325.665C613.757 325.735 613.682 325.835 613.612 325.965C613.552 326.095 613.492 326.255 613.432 326.445C613.322 326.735 613.212 326.93 613.102 327.03C613.002 327.12 612.852 327.165 612.652 327.165C612.152 327.165 611.902 326.915 611.902 326.415C611.902 325.935 612.157 325.565 612.667 325.305C613.177 325.035 613.902 324.9 614.842 324.9C615.842 324.9 616.552 325.08 616.972 325.44C617.392 325.79 617.602 326.39 617.602 327.24V330.6C617.602 331.74 617.827 332.31 618.277 332.31C618.417 332.31 618.552 332.295 618.682 332.265C618.812 332.225 618.922 332.13 619.012 331.98L619.222 332.34C619.102 332.57 618.882 332.765 618.562 332.925C618.242 333.075 617.907 333.15 617.557 333.15C617.117 333.15 616.787 333.01 616.567 332.73C616.357 332.45 616.252 332.055 616.252 331.545H616.177C615.917 332.035 615.557 332.425 615.097 332.715C614.637 332.995 614.127 333.135 613.567 333.135C612.937 333.135 612.442 332.975 612.082 332.655C611.722 332.335 611.542 331.905 611.542 331.365C611.542 331.125 611.582 330.895 611.662 330.675C611.752 330.455 611.892 330.245 612.082 330.045C612.272 329.845 612.522 329.65 612.832 329.46C613.142 329.26 613.522 329.06 613.972 328.86L616.132 327.915ZM622.443 330.645C622.443 331.055 622.453 331.38 622.473 331.62C622.493 331.85 622.543 332.03 622.623 332.16C622.713 332.28 622.838 332.36 622.998 332.4C623.168 332.44 623.398 332.47 623.688 332.49V333H619.758V332.49C620.038 332.47 620.258 332.44 620.418 332.4C620.588 332.36 620.718 332.28 620.808 332.16C620.898 332.04 620.953 331.87 620.973 331.65C621.003 331.43 621.018 331.13 621.018 330.75V328.755C621.018 327.565 620.988 326.84 620.928 326.58C620.898 326.45 620.858 326.345 620.808 326.265C620.768 326.175 620.703 326.11 620.613 326.07C620.523 326.02 620.408 325.99 620.268 325.98C620.128 325.96 619.948 325.95 619.728 325.95V325.47L622.128 324.9L622.308 326.385H622.368C622.748 325.915 623.193 325.55 623.703 325.29C624.213 325.03 624.768 324.9 625.368 324.9C625.828 324.9 626.248 324.975 626.628 325.125C627.008 325.275 627.298 325.48 627.498 325.74C627.668 325.97 627.788 326.27 627.858 326.64C627.928 327 627.963 327.5 627.963 328.14V330.645C627.963 331.055 627.973 331.38 627.993 331.62C628.023 331.85 628.078 332.03 628.158 332.16C628.238 332.28 628.358 332.36 628.518 332.4C628.688 332.44 628.908 332.47 629.178 332.49V333H625.293V332.49C625.573 332.48 625.793 332.455 625.953 332.415C626.123 332.365 626.248 332.28 626.328 332.16C626.418 332.04 626.473 331.87 626.493 331.65C626.523 331.42 626.538 331.12 626.538 330.75V328.77C626.538 328.2 626.508 327.72 626.448 327.33C626.388 326.94 626.288 326.625 626.148 326.385C626.018 326.145 625.843 325.975 625.623 325.875C625.403 325.765 625.138 325.71 624.828 325.71C624.378 325.71 623.963 325.83 623.583 326.07C623.213 326.3 622.923 326.62 622.713 327.03C622.663 327.13 622.618 327.225 622.578 327.315C622.548 327.405 622.523 327.51 622.503 327.63C622.483 327.75 622.468 327.89 622.458 328.05C622.448 328.2 622.443 328.395 622.443 328.635V330.645ZM633.655 329.775C634.075 329.775 634.4 329.585 634.63 329.205C634.87 328.825 634.99 328.29 634.99 327.6C634.99 326.92 634.87 326.395 634.63 326.025C634.4 325.645 634.07 325.455 633.64 325.455C633.21 325.455 632.865 325.645 632.605 326.025C632.355 326.405 632.23 326.925 632.23 327.585C632.23 328.245 632.36 328.775 632.62 329.175C632.88 329.575 633.225 329.775 633.655 329.775ZM632.83 331.53C633.07 331.55 633.29 331.57 633.49 331.59C633.69 331.61 633.885 331.63 634.075 331.65C634.275 331.67 634.47 331.695 634.66 331.725C634.86 331.755 635.075 331.785 635.305 331.815C636.025 331.925 636.6 332.205 637.03 332.655C637.47 333.095 637.69 333.65 637.69 334.32C637.69 335.16 637.355 335.8 636.685 336.24C636.025 336.68 635.065 336.9 633.805 336.9C633.245 336.9 632.73 336.85 632.26 336.75C631.8 336.65 631.405 336.505 631.075 336.315C630.745 336.135 630.485 335.915 630.295 335.655C630.115 335.395 630.025 335.11 630.025 334.8C630.025 334.59 630.06 334.395 630.13 334.215C630.2 334.035 630.295 333.875 630.415 333.735C630.535 333.605 630.675 333.5 630.835 333.42C631.005 333.34 631.18 333.3 631.36 333.3C631.7 333.3 632.005 333.405 632.275 333.615C632.005 333.675 631.785 333.82 631.615 334.05C631.445 334.29 631.36 334.56 631.36 334.86C631.36 335.3 631.575 335.64 632.005 335.88C632.445 336.12 633.065 336.24 633.865 336.24C635.575 336.24 636.43 335.715 636.43 334.665C636.43 334.265 636.295 333.93 636.025 333.66C635.755 333.4 635.435 333.245 635.065 333.195C634.825 333.165 634.575 333.13 634.315 333.09C634.065 333.06 633.815 333.03 633.565 333C633.325 332.97 633.1 332.945 632.89 332.925C632.68 332.905 632.51 332.885 632.38 332.865C631.82 332.805 631.395 332.655 631.105 332.415C630.815 332.175 630.67 331.845 630.67 331.425C630.67 331.075 630.815 330.765 631.105 330.495C631.395 330.225 631.76 330.055 632.2 329.985V329.925C631.98 329.835 631.775 329.71 631.585 329.55C631.395 329.38 631.23 329.19 631.09 328.98C630.96 328.77 630.855 328.545 630.775 328.305C630.695 328.055 630.655 327.8 630.655 327.54C630.655 327.16 630.725 326.81 630.865 326.49C631.015 326.17 631.22 325.895 631.48 325.665C631.75 325.425 632.065 325.24 632.425 325.11C632.785 324.97 633.18 324.9 633.61 324.9C634.05 324.9 634.465 324.97 634.855 325.11C635.245 325.24 635.58 325.435 635.86 325.695C636.2 325.415 636.5 325.215 636.76 325.095C637.02 324.965 637.265 324.9 637.495 324.9C637.855 324.9 638.14 324.985 638.35 325.155C638.57 325.315 638.68 325.535 638.68 325.815C638.68 325.985 638.62 326.12 638.5 326.22C638.39 326.32 638.25 326.37 638.08 326.37C637.94 326.37 637.825 326.345 637.735 326.295C637.645 326.245 637.56 326.195 637.48 326.145C637.41 326.085 637.335 326.03 637.255 325.98C637.175 325.93 637.075 325.905 636.955 325.905C636.715 325.905 636.47 325.99 636.22 326.16C636.46 326.53 636.58 326.995 636.58 327.555C636.58 328.405 636.315 329.075 635.785 329.565C635.255 330.045 634.46 330.325 633.4 330.405C632.79 330.455 632.365 330.52 632.125 330.6C631.885 330.68 631.765 330.825 631.765 331.035C631.765 331.195 631.855 331.315 632.035 331.395C632.215 331.465 632.48 331.51 632.83 331.53Z" fill="#FFF7DB"/>
</g>
<defs>
<filter id="filter0_dddddd_3_6" x="-341.664" y="-555.195" width="1766.55" height="1663.52" filterUnits="userSpaceOnUse" color-interpolation-filters="sRGB">
<feFlood flood-opacity="0" result="BackgroundImageFix"/>
<feColorMatrix in="SourceAlpha" type="matrix" values="0 0 0 0 0 0 0 0 0 0 0 0 0 0 0 0 0 0 127 0" result="hardAlpha"/>
<feOffset/>
<feGaussianBlur stdDeviation="9.48"/>
<feColorMatrix type="matrix" values="0 0 0 0 1 0 0 0 0 0.970143 0 0 0 0 0.859273 0 0 0 1 0"/>
<feBlend mode="normal" in2="BackgroundImageFix" result="effect1_dropShadow_3_6"/>
<feColorMatrix in="SourceAlpha" type="matrix" values="0 0 0 0 0 0 0 0 0 0 0 0 0 0 0 0 0 0 127 0" result="hardAlpha"/>
<feOffset/>
<feGaussianBlur stdDeviation="18.96"/>
<feColorMatrix type="matrix" values="0 0 0 0 1 0 0 0 0 0.970143 0 0 0 0 0.859273 0 0 0 1 0"/>
<feBlend mode="normal" in2="effect1_dropShadow_3_6" result="effect2_dropShadow_3_6"/>
<feColorMatrix in="SourceAlpha" type="matrix" values="0 0 0 0 0 0 0 0 0 0 0 0 0 0 0 0 0 0 127 0" result="hardAlpha"/>
<feOffset/>
<feGaussianBlur stdDeviation="66.36"/>
<feColorMatrix type="matrix" values="0 0 0 0 1 0 0 0 0 0.970143 0 0 0 0 0.859273 0 0 0 1 0"/>
<feBlend mode="normal" in2="effect2_dropShadow_3_6" result="effect3_dropShadow_3_6"/>
<feColorMatrix in="SourceAlpha" type="matrix" values="0 0 0 0 0 0 0 0 0 0 0 0 0 0 0 0 0 0 127 0" result="hardAlpha"/>
<feOffset/>
<feGaussianBlur stdDeviation="132.72"/>
<feColorMatrix type="matrix" values="0 0 0 0 0.411765 0 0 0 0 0.380392 0 0 0 0 0.286275 0 0 0 1 0"/>
<feBlend mode="normal" in2="effect3_dropShadow_3_6" result="effect4_dropShadow_3_6"/>
<feColorMatrix in="SourceAlpha" type="matrix" values="0 0 0 0 0 0 0 0 0 0 0 0 0 0 0 0 0 0 127 0" result="hardAlpha"/>
<feOffset/>
<feGaussianBlur stdDeviation="227.52"/>
<feColorMatrix type="matrix" values="0 0 0 0 0.411765 0 0 0 0 0.380392 0 0 0 0 0.286275 0 0 0 1 0"/>
<feBlend mode="normal" in2="effect4_dropShadow_3_6" result="effect5_dropShadow_3_6"/>
<feColorMatrix in="SourceAlpha" type="matrix" values="0 0 0 0 0 0 0 0 0 0 0 0 0 0 0 0 0 0 127 0" result="hardAlpha"/>
<feOffset/>
<feGaussianBlur stdDeviation="398.16"/>
<feColorMatrix type="matrix" values="0 0 0 0 0.411765 0 0 0 0 0.380392 0 0 0 0 0.286275 0 0 0 1 0"/>
<feBlend mode="normal" in2="effect5_dropShadow_3_6" result="effect6_dropShadow_3_6"/>
<feBlend mode="normal" in="SourceGraphic" in2="effect6_dropShadow_3_6" result="shape"/>
</filter>
<filter id="filter1_dddddd_3_6" x="-454.32" y="-553.758" width="1703.64" height="1687.08" filterUnits="userSpaceOnUse" color-interpolation-filters="sRGB">
<feFlood flood-opacity="0" result="BackgroundImageFix"/>
<feColorMatrix in="SourceAlpha" type="matrix" values="0 0 0 0 0 0 0 0 0 0 0 0 0 0 0 0 0 0 127 0" result="hardAlpha"/>
<feOffset/>
<feGaussianBlur stdDeviation="9.48"/>
<feColorMatrix type="matrix" values="0 0 0 0 1 0 0 0 0 0.970143 0 0 0 0 0.859273 0 0 0 1 0"/>
<feBlend mode="normal" in2="BackgroundImageFix" result="effect1_dropShadow_3_6"/>
<feColorMatrix in="SourceAlpha" type="matrix" values="0 0 0 0 0 0 0 0 0 0 0 0 0 0 0 0 0 0 127 0" result="hardAlpha"/>
<feOffset/>
<feGaussianBlur stdDeviation="18.96"/>
<feColorMatrix type="matrix" values="0 0 0 0 1 0 0 0 0 0.970143 0 0 0 0 0.859273 0 0 0 1 0"/>
<feBlend mode="normal" in2="effect1_dropShadow_3_6" result="effect2_dropShadow_3_6"/>
<feColorMatrix in="SourceAlpha" type="matrix" values="0 0 0 0 0 0 0 0 0 0 0 0 0 0 0 0 0 0 127 0" result="hardAlpha"/>
<feOffset/>
<feGaussianBlur stdDeviation="66.36"/>
<feColorMatrix type="matrix" values="0 0 0 0 1 0 0 0 0 0.970143 0 0 0 0 0.859273 0 0 0 1 0"/>
<feBlend mode="normal" in2="effect2_dropShadow_3_6" result="effect3_dropShadow_3_6"/>
<feColorMatrix in="SourceAlpha" type="matrix" values="0 0 0 0 0 0 0 0 0 0 0 0 0 0 0 0 0 0 127 0" result="hardAlpha"/>
<feOffset/>
<feGaussianBlur stdDeviation="132.72"/>
<feColorMatrix type="matrix" values="0 0 0 0 0.411765 0 0 0 0 0.380392 0 0 0 0 0.286275 0 0 0 1 0"/>
<feBlend mode="normal" in2="effect3_dropShadow_3_6" result="effect4_dropShadow_3_6"/>
<feColorMatrix in="SourceAlpha" type="matrix" values="0 0 0 0 0 0 0 0 0 0 0 0 0 0 0 0 0 0 127 0" result="hardAlpha"/>
<feOffset/>
<feGaussianBlur stdDeviation="227.52"/>
<feColorMatrix type="matrix" values="0 0 0 0 0.411765 0 0 0 0 0.380392 0 0 0 0 0.286275 0 0 0 1 0"/>
<feBlend mode="normal" in2="effect4_dropShadow_3_6" result="effect5_dropShadow_3_6"/>
<feColorMatrix in="SourceAlpha" type="matrix" values="0 0 0 0 0 0 0 0 0 0 0 0 0 0 0 0 0 0 127 0" result="hardAlpha"/>
<feOffset/>
<feGaussianBlur stdDeviation="398.16"/>
<feColorMatrix type="matrix" values="0 0 0 0 0.411765 0 0 0 0 0.380392 0 0 0 0 0.286275 0 0 0 1 0"/>
<feBlend mode="normal" in2="effect5_dropShadow_3_6" result="effect6_dropShadow_3_6"/>
<feBlend mode="normal" in="SourceGraphic" in2="effect6_dropShadow_3_6" result="shape"/>
</filter>
<filter id="filter2_dddddd_3_6" x="-155.82" y="-554.008" width="1658.64" height="1687.33" filterUnits="userSpaceOnUse" color-interpolation-filters="sRGB">
<feFlood flood-opacity="0" result="BackgroundImageFix"/>
<feColorMatrix in="SourceAlpha" type="matrix" values="0 0 0 0 0 0 0 0 0 0 0 0 0 0 0 0 0 0 127 0" result="hardAlpha"/>
<feOffset/>
<feGaussianBlur stdDeviation="9.48"/>
<feColorMatrix type="matrix" values="0 0 0 0 1 0 0 0 0 0.970143 0 0 0 0 0.859273 0 0 0 1 0"/>
<feBlend mode="normal" in2="BackgroundImageFix" result="effect1_dropShadow_3_6"/>
<feColorMatrix in="SourceAlpha" type="matrix" values="0 0 0 0 0 0 0 0 0 0 0 0 0 0 0 0 0 0 127 0" result="hardAlpha"/>
<feOffset/>
<feGaussianBlur stdDeviation="18.96"/>
<feColorMatrix type="matrix" values="0 0 0 0 1 0 0 0 0 0.970143 0 0 0 0 0.859273 0 0 0 1 0"/>
<feBlend mode="normal" in2="effect1_dropShadow_3_6" result="effect2_dropShadow_3_6"/>
<feColorMatrix in="SourceAlpha" type="matrix" values="0 0 0 0 0 0 0 0 0 0 0 0 0 0 0 0 0 0 127 0" result="hardAlpha"/>
<feOffset/>
<feGaussianBlur stdDeviation="66.36"/>
<feColorMatrix type="matrix" values="0 0 0 0 1 0 0 0 0 0.970143 0 0 0 0 0.859273 0 0 0 1 0"/>
<feBlend mode="normal" in2="effect2_dropShadow_3_6" result="effect3_dropShadow_3_6"/>
<feColorMatrix in="SourceAlpha" type="matrix" values="0 0 0 0 0 0 0 0 0 0 0 0 0 0 0 0 0 0 127 0" result="hardAlpha"/>
<feOffset/>
<feGaussianBlur stdDeviation="132.72"/>
<feColorMatrix type="matrix" values="0 0 0 0 0.411765 0 0 0 0 0.380392 0 0 0 0 0.286275 0 0 0 1 0"/>
<feBlend mode="normal" in2="effect3_dropShadow_3_6" result="effect4_dropShadow_3_6"/>
<feColorMatrix in="SourceAlpha" type="matrix" values="0 0 0 0 0 0 0 0 0 0 0 0 0 0 0 0 0 0 127 0" result="hardAlpha"/>
<feOffset/>
<feGaussianBlur stdDeviation="227.52"/>
<feColorMatrix type="matrix" values="0 0 0 0 0.411765 0 0 0 0 0.380392 0 0 0 0 0.286275 0 0 0 1 0"/>
<feBlend mode="normal" in2="effect4_dropShadow_3_6" result="effect5_dropShadow_3_6"/>
<feColorMatrix in="SourceAlpha" type="matrix" values="0 0 0 0 0 0 0 0 0 0 0 0 0 0 0 0 0 0 127 0" result="hardAlpha"/>
<feOffset/>
<feGaussianBlur stdDeviation="398.16"/>
<feColorMatrix type="matrix" values="0 0 0 0 0.411765 0 0 0 0 0.380392 0 0 0 0 0.286275 0 0 0 1 0"/>
<feBlend mode="normal" in2="effect5_dropShadow_3_6" result="effect6_dropShadow_3_6"/>
<feBlend mode="normal" in="SourceGraphic" in2="effect6_dropShadow_3_6" result="shape"/>
</filter>
<filter id="filter3_dddddd_3_6" x="-108.615" y="-233.9" width="1301.75" height="1125.25" filterUnits="userSpaceOnUse" color-interpolation-filters="sRGB">
<feFlood flood-opacity="0" result="BackgroundImageFix"/>
<feColorMatrix in="SourceAlpha" type="matrix" values="0 0 0 0 0 0 0 0 0 0 0 0 0 0 0 0 0 0 127 0" result="hardAlpha"/>
<feOffset/>
<feGaussianBlur stdDeviation="6.6006"/>
<feColorMatrix type="matrix" values="0 0 0 0 1 0 0 0 0 0.970143 0 0 0 0 0.859273 0 0 0 1 0"/>
<feBlend mode="normal" in2="BackgroundImageFix" result="effect1_dropShadow_3_6"/>
<feColorMatrix in="SourceAlpha" type="matrix" values="0 0 0 0 0 0 0 0 0 0 0 0 0 0 0 0 0 0 127 0" result="hardAlpha"/>
<feOffset/>
<feGaussianBlur stdDeviation="13.2012"/>
<feColorMatrix type="matrix" values="0 0 0 0 1 0 0 0 0 0.970143 0 0 0 0 0.859273 0 0 0 1 0"/>
<feBlend mode="normal" in2="effect1_dropShadow_3_6" result="effect2_dropShadow_3_6"/>
<feColorMatrix in="SourceAlpha" type="matrix" values="0 0 0 0 0 0 0 0 0 0 0 0 0 0 0 0 0 0 127 0" result="hardAlpha"/>
<feOffset/>
<feGaussianBlur stdDeviation="46.2042"/>
<feColorMatrix type="matrix" values="0 0 0 0 1 0 0 0 0 0.970143 0 0 0 0 0.859273 0 0 0 1 0"/>
<feBlend mode="normal" in2="effect2_dropShadow_3_6" result="effect3_dropShadow_3_6"/>
<feColorMatrix in="SourceAlpha" type="matrix" values="0 0 0 0 0 0 0 0 0 0 0 0 0 0 0 0 0 0 127 0" result="hardAlpha"/>
<feOffset/>
<feGaussianBlur stdDeviation="92.4084"/>
<feColorMatrix type="matrix" values="0 0 0 0 0.411765 0 0 0 0 0.380392 0 0 0 0 0.286275 0 0 0 1 0"/>
<feBlend mode="normal" in2="effect3_dropShadow_3_6" result="effect4_dropShadow_3_6"/>
<feColorMatrix in="SourceAlpha" type="matrix" values="0 0 0 0 0 0 0 0 0 0 0 0 0 0 0 0 0 0 127 0" result="hardAlpha"/>
<feOffset/>
<feGaussianBlur stdDeviation="158.414"/>
<feColorMatrix type="matrix" values="0 0 0 0 0.411765 0 0 0 0 0.380392 0 0 0 0 0.286275 0 0 0 1 0"/>
<feBlend mode="normal" in2="effect4_dropShadow_3_6" result="effect5_dropShadow_3_6"/>
<feColorMatrix in="SourceAlpha" type="matrix" values="0 0 0 0 0 0 0 0 0 0 0 0 0 0 0 0 0 0 127 0" result="hardAlpha"/>
<feOffset/>
<feGaussianBlur stdDeviation="277.225"/>
<feColorMatrix type="matrix" values="0 0 0 0 0.411765 0 0 0 0 0.380392 0 0 0 0 0.286275 0 0 0 1 0"/>
<feBlend mode="normal" in2="effect5_dropShadow_3_6" result="effect6_dropShadow_3_6"/>
<feBlend mode="normal" in="SourceGraphic" in2="effect6_dropShadow_3_6" result="shape"/>
</filter>
</defs>
</svg>
